<?xml version="1.0" encoding="UTF-8" standalone="no"?>
<!DOCTYPE svg PUBLIC "-//W3C//DTD SVG 1.1//EN"
 "http://www.w3.org/Graphics/SVG/1.1/DTD/svg11.dtd">
<!-- Generated by graphviz version 2.40.1 (20161225.0304)
 -->
<!-- Title: RDF Pages: 1 -->
<svg width="621pt" height="573pt"
 viewBox="0.00 0.00 620.71 573.00" xmlns="http://www.w3.org/2000/svg" xmlns:xlink="http://www.w3.org/1999/xlink">
<g id="graph0" class="graph" transform="scale(1 1) rotate(0) translate(4 569)">
<title>RDF</title>
<polygon fill="#ffffff" stroke="transparent" points="-4,4 -4,-569 616.7077,-569 616.7077,4 -4,4"/>
<!-- http://www.example.org/ns#b1 -->
<g id="node1" class="node">
<title>http://www.example.org/ns#b1</title>
<polygon fill="#f5ebdd" stroke="#000000" points="149.5,-547 122.5,-529 149.5,-511 176.5,-529 149.5,-547"/>
<text text-anchor="middle" x="149.5" y="-525.9" font-family="Times,serif" font-size="12.00" fill="#000000">b1</text>
</g>
<!-- http://www.example.org/ns#WaterTank_tankCapacity -->
<g id="node2" class="node">
<title>http://www.example.org/ns#WaterTank_tankCapacity</title>
<ellipse fill="#84eab3" stroke="#000000" cx="340.2549" cy="-385" rx="67.1981" ry="18"/>
<text text-anchor="middle" x="340.2549" y="-381.9" font-family="Times,serif" font-size="12.00" fill="#000000">WaterTank_tankCapacity</text>
</g>
<!-- http://www.example.org/ns#b1&#45;&gt;http://www.example.org/ns#WaterTank_tankCapacity -->
<g id="edge1" class="edge">
<title>http://www.example.org/ns#b1&#45;&gt;http://www.example.org/ns#WaterTank_tankCapacity</title>
<path fill="none" stroke="#000000" d="M174.9991,-527.7858C196.8185,-525.5221 227.9491,-519.2352 249,-502 262.8412,-490.6677 256.9077,-480.7697 267,-466 280.846,-445.7369 299.4179,-425.2571 314.397,-409.9599"/>
<polygon fill="#000000" stroke="#000000" points="317.2859,-412.0187 321.8586,-402.4615 312.3239,-407.0812 317.2859,-412.0187"/>
<text text-anchor="middle" x="230.5" y="-522.4" font-family="Times,serif" font-size="12.00" fill="#000000">constrains</text>
</g>
<!-- http://www.example.org/ns#KNOWLEDGE -->
<g id="node3" class="node">
<title>http://www.example.org/ns#KNOWLEDGE</title>
<polygon fill="#f5ebdd" stroke="#000000" points="340.2549,-331 275.9102,-313 340.2549,-295 404.5995,-313 340.2549,-331"/>
<text text-anchor="middle" x="340.2549" y="-309.9" font-family="Times,serif" font-size="12.00" fill="#000000">KNOWLEDGE</text>
</g>
<!-- http://www.example.org/ns#b1&#45;&gt;http://www.example.org/ns#KNOWLEDGE -->
<g id="edge2" class="edge">
<title>http://www.example.org/ns#b1&#45;&gt;http://www.example.org/ns#KNOWLEDGE</title>
<path fill="none" stroke="#000000" d="M158.9681,-517.0697C170.9798,-502.0691 192.4851,-475.6577 212,-454 227.7793,-436.4881 236.9516,-436.2606 249,-416 262.7956,-392.8014 250.4425,-379.3153 267,-358 276.7457,-345.4538 291.0507,-335.5614 304.4391,-328.2848"/>
<polygon fill="#000000" stroke="#000000" points="306.1774,-331.3272 313.4942,-323.6646 302.9959,-325.0919 306.1774,-331.3272"/>
<text text-anchor="middle" x="230.5" y="-457.4" font-family="Times,serif" font-size="12.00" fill="#000000">rdf:type</text>
</g>
<!-- http://www.example.org/ns#WaterTank_tankMaterial -->
<g id="node6" class="node">
<title>http://www.example.org/ns#WaterTank_tankMaterial</title>
<ellipse fill="#84eab3" stroke="#000000" cx="340.2549" cy="-493" rx="65.7359" ry="18"/>
<text text-anchor="middle" x="340.2549" y="-489.9" font-family="Times,serif" font-size="12.00" fill="#000000">WaterTank_tankMaterial</text>
</g>
<!-- http://www.example.org/ns#b1&#45;&gt;http://www.example.org/ns#WaterTank_tankMaterial -->
<g id="edge19" class="edge">
<title>http://www.example.org/ns#b1&#45;&gt;http://www.example.org/ns#WaterTank_tankMaterial</title>
<path fill="none" stroke="#000000" d="M166.9831,-535.5195C187.0343,-542.0659 220.7779,-550.225 249,-543 270.1157,-537.5943 291.5982,-526.1773 308.4112,-515.6163"/>
<polygon fill="#000000" stroke="#000000" points="310.7605,-518.2638 317.2393,-509.8807 306.9469,-512.3939 310.7605,-518.2638"/>
<text text-anchor="middle" x="230.5" y="-548.4" font-family="Times,serif" font-size="12.00" fill="#000000">constrains</text>
</g>
<!-- http://www.example.org/ns#TankCapacity_V1000 -->
<g id="node9" class="node">
<title>http://www.example.org/ns#TankCapacity_V1000</title>
<ellipse fill="#ffc067" stroke="#000000" cx="545.6087" cy="-330" rx="59.1929" ry="18"/>
<text text-anchor="middle" x="545.6087" y="-326.9" font-family="Times,serif" font-size="12.00" fill="#000000">TankCapacity_V1000</text>
</g>
<!-- http://www.example.org/ns#WaterTank_tankCapacity&#45;&gt;http://www.example.org/ns#TankCapacity_V1000 -->
<g id="edge7" class="edge">
<title>http://www.example.org/ns#WaterTank_tankCapacity&#45;&gt;http://www.example.org/ns#TankCapacity_V1000</title>
<path fill="none" stroke="#000000" d="M387.8833,-372.2437C418.8075,-363.9612 459.1902,-353.1455 491.3522,-344.5315"/>
<polygon fill="#000000" stroke="#000000" points="492.2959,-347.9022 501.05,-341.9342 490.4849,-341.1405 492.2959,-347.9022"/>
<text text-anchor="middle" x="446.0097" y="-362.4" font-family="Times,serif" font-size="12.00" fill="#000000">has</text>
</g>
<!-- http://www.example.org/ns#FEATURE -->
<g id="node13" class="node">
<title>http://www.example.org/ns#FEATURE</title>
<ellipse fill="none" stroke="#000000" cx="545.6087" cy="-269" rx="41.6928" ry="18"/>
<text text-anchor="middle" x="545.6087" y="-265.3" font-family="Times,serif" font-size="14.00" fill="#000000">FEATURE</text>
</g>
<!-- http://www.example.org/ns#WaterTank_tankCapacity&#45;&gt;http://www.example.org/ns#FEATURE -->
<g id="edge15" class="edge">
<title>http://www.example.org/ns#WaterTank_tankCapacity&#45;&gt;http://www.example.org/ns#FEATURE</title>
<path fill="none" stroke="#000000" d="M366.9714,-368.4386C394.5972,-351.4835 439.1268,-324.6261 478.5097,-303 488.2253,-297.6649 498.8742,-292.1301 508.7696,-287.1145"/>
<polygon fill="#000000" stroke="#000000" points="510.6089,-290.1073 517.971,-282.4883 507.4645,-283.8533 510.6089,-290.1073"/>
<text text-anchor="middle" x="446.0097" y="-332.4" font-family="Times,serif" font-size="12.00" fill="#000000">rdf:type</text>
</g>
<!-- http://www.example.org/ns#TankCapacity_V700 -->
<g id="node17" class="node">
<title>http://www.example.org/ns#TankCapacity_V700</title>
<ellipse fill="#ffc067" stroke="#000000" cx="545.6087" cy="-384" rx="56.0368" ry="18"/>
<text text-anchor="middle" x="545.6087" y="-380.9" font-family="Times,serif" font-size="12.00" fill="#000000">TankCapacity_V700</text>
</g>
<!-- http://www.example.org/ns#WaterTank_tankCapacity&#45;&gt;http://www.example.org/ns#TankCapacity_V700 -->
<g id="edge21" class="edge">
<title>http://www.example.org/ns#WaterTank_tankCapacity&#45;&gt;http://www.example.org/ns#TankCapacity_V700</title>
<path fill="none" stroke="#000000" d="M407.4954,-384.6726C430.6253,-384.5599 456.4898,-384.434 479.5266,-384.3218"/>
<polygon fill="#000000" stroke="#000000" points="479.5672,-387.8217 489.55,-384.273 479.533,-380.8218 479.5672,-387.8217"/>
<text text-anchor="middle" x="446.0097" y="-387.4" font-family="Times,serif" font-size="12.00" fill="#000000">has</text>
</g>
<!-- http://www.example.org/ns#TankCapacity_V1500 -->
<g id="node20" class="node">
<title>http://www.example.org/ns#TankCapacity_V1500</title>
<ellipse fill="#ffc067" stroke="#000000" cx="545.6087" cy="-438" rx="59.1929" ry="18"/>
<text text-anchor="middle" x="545.6087" y="-434.9" font-family="Times,serif" font-size="12.00" fill="#000000">TankCapacity_V1500</text>
</g>
<!-- http://www.example.org/ns#WaterTank_tankCapacity&#45;&gt;http://www.example.org/ns#TankCapacity_V1500 -->
<g id="edge28" class="edge">
<title>http://www.example.org/ns#WaterTank_tankCapacity&#45;&gt;http://www.example.org/ns#TankCapacity_V1500</title>
<path fill="none" stroke="#000000" d="M388.6608,-397.4931C419.1551,-405.3634 458.6118,-415.5469 490.3343,-423.7342"/>
<polygon fill="#000000" stroke="#000000" points="489.7835,-427.2066 500.3409,-426.3168 491.5328,-420.4287 489.7835,-427.2066"/>
<text text-anchor="middle" x="446.0097" y="-417.4" font-family="Times,serif" font-size="12.00" fill="#000000">has</text>
</g>
<!-- http://www.example.org/ns#b2 -->
<g id="node4" class="node">
<title>http://www.example.org/ns#b2</title>
<polygon fill="#f5ebdd" stroke="#000000" points="149.5,-223 122.5,-205 149.5,-187 176.5,-205 149.5,-223"/>
<text text-anchor="middle" x="149.5" y="-201.9" font-family="Times,serif" font-size="12.00" fill="#000000">b2</text>
</g>
<!-- http://www.example.org/ns#b2&#45;&gt;http://www.example.org/ns#KNOWLEDGE -->
<g id="edge3" class="edge">
<title>http://www.example.org/ns#b2&#45;&gt;http://www.example.org/ns#KNOWLEDGE</title>
<path fill="none" stroke="#000000" d="M160.8279,-215.5163C172.8759,-226.3405 192.8056,-243.2391 212,-255 241.0083,-272.774 276.3952,-288.3689 302.6446,-298.8985"/>
<polygon fill="#000000" stroke="#000000" points="301.6385,-302.2641 312.2252,-302.68 304.2086,-295.7529 301.6385,-302.2641"/>
<text text-anchor="middle" x="230.5" y="-276.4" font-family="Times,serif" font-size="12.00" fill="#000000">rdf:type</text>
</g>
<!-- http://www.example.org/ns#BrewingUnit_pumpPressure -->
<g id="node8" class="node">
<title>http://www.example.org/ns#BrewingUnit_pumpPressure</title>
<ellipse fill="#84eab3" stroke="#000000" cx="340.2549" cy="-206" rx="73.0105" ry="18"/>
<text text-anchor="middle" x="340.2549" y="-202.9" font-family="Times,serif" font-size="12.00" fill="#000000">BrewingUnit_pumpPressure</text>
</g>
<!-- http://www.example.org/ns#b2&#45;&gt;http://www.example.org/ns#BrewingUnit_pumpPressure -->
<g id="edge6" class="edge">
<title>http://www.example.org/ns#b2&#45;&gt;http://www.example.org/ns#BrewingUnit_pumpPressure</title>
<path fill="none" stroke="#000000" d="M176.4259,-205.1412C197.4635,-205.2514 227.8919,-205.411 256.8292,-205.5627"/>
<polygon fill="#000000" stroke="#000000" points="256.9664,-209.0633 266.9846,-205.6159 257.0032,-202.0634 256.9664,-209.0633"/>
<text text-anchor="middle" x="230.5" y="-208.4" font-family="Times,serif" font-size="12.00" fill="#000000">constrains</text>
</g>
<!-- http://www.example.org/ns#BrewingUnit_capsuleType -->
<g id="node14" class="node">
<title>http://www.example.org/ns#BrewingUnit_capsuleType</title>
<ellipse fill="#84eab3" stroke="#000000" cx="340.2549" cy="-64" rx="69.6227" ry="18"/>
<text text-anchor="middle" x="340.2549" y="-60.9" font-family="Times,serif" font-size="12.00" fill="#000000">BrewingUnit_capsuleType</text>
</g>
<!-- http://www.example.org/ns#b2&#45;&gt;http://www.example.org/ns#BrewingUnit_capsuleType -->
<g id="edge22" class="edge">
<title>http://www.example.org/ns#b2&#45;&gt;http://www.example.org/ns#BrewingUnit_capsuleType</title>
<path fill="none" stroke="#000000" d="M158.3618,-192.9015C176.191,-169.4676 218.8325,-117.8381 267,-91 272.9664,-87.6756 279.4223,-84.6138 285.9437,-81.8401"/>
<polygon fill="#000000" stroke="#000000" points="287.5324,-84.9733 295.496,-77.9853 284.9128,-78.4819 287.5324,-84.9733"/>
<text text-anchor="middle" x="230.5" y="-134.4" font-family="Times,serif" font-size="12.00" fill="#000000">constrains</text>
</g>
<!-- http://www.example.org/ns#Struct_WaterTank -->
<g id="node5" class="node">
<title>http://www.example.org/ns#Struct_WaterTank</title>
<polygon fill="#f2f4f7" stroke="#000000" points="191,-412 108,-412 108,-376 191,-376 191,-412"/>
<text text-anchor="middle" x="149.5" y="-390.9" font-family="Times,serif" font-size="12.00" fill="#000000">Struct_WaterTank</text>
</g>
<!-- http://www.example.org/ns#Struct_WaterTank&#45;&gt;http://www.example.org/ns#WaterTank_tankCapacity -->
<g id="edge24" class="edge">
<title>http://www.example.org/ns#Struct_WaterTank&#45;&gt;http://www.example.org/ns#WaterTank_tankCapacity</title>
<path fill="none" stroke="#000000" d="M191.1599,-397.7983C198.1134,-398.2986 205.2565,-398.7307 212,-399 228.4313,-399.6562 232.6032,-400.2505 249,-399 257.0671,-398.3848 265.5007,-397.4679 273.8426,-396.3922"/>
<polygon fill="#000000" stroke="#000000" points="274.5083,-399.8338 283.9418,-395.011 273.5597,-392.8984 274.5083,-399.8338"/>
<text text-anchor="middle" x="230.5" y="-402.4" font-family="Times,serif" font-size="12.00" fill="#000000">has</text>
</g>
<!-- http://www.example.org/ns#Struct_WaterTank&#45;&gt;http://www.example.org/ns#WaterTank_tankMaterial -->
<g id="edge4" class="edge">
<title>http://www.example.org/ns#Struct_WaterTank&#45;&gt;http://www.example.org/ns#WaterTank_tankMaterial</title>
<path fill="none" stroke="#000000" d="M159.0485,-412.1575C169.5228,-430.1543 188.0748,-457.0003 212,-471 227.8763,-480.2899 246.6276,-485.8959 264.8191,-489.2217"/>
<polygon fill="#000000" stroke="#000000" points="264.4155,-492.7018 274.8461,-490.8436 265.5333,-485.7916 264.4155,-492.7018"/>
<text text-anchor="middle" x="230.5" y="-488.4" font-family="Times,serif" font-size="12.00" fill="#000000">has</text>
</g>
<!-- http://www.example.org/ns#COMPONENT -->
<g id="node11" class="node">
<title>http://www.example.org/ns#COMPONENT</title>
<polygon fill="#f2f4f7" stroke="#000000" points="376.7549,-136 303.7549,-136 303.7549,-100 376.7549,-100 376.7549,-136"/>
<text text-anchor="middle" x="340.2549" y="-114.9" font-family="Times,serif" font-size="12.00" fill="#000000">COMPONENT</text>
</g>
<!-- http://www.example.org/ns#Struct_WaterTank&#45;&gt;http://www.example.org/ns#COMPONENT -->
<g id="edge25" class="edge">
<title>http://www.example.org/ns#Struct_WaterTank&#45;&gt;http://www.example.org/ns#COMPONENT</title>
<path fill="none" stroke="#000000" d="M171.0689,-375.8864C182.8006,-366.4378 197.7841,-355.0053 212,-346 227.6163,-336.1077 238.4296,-342.1656 249,-327 286.8896,-272.6392 235.3061,-237.1912 267,-179 274.9221,-164.4547 287.8455,-151.9594 300.6492,-142.1341"/>
<polygon fill="#000000" stroke="#000000" points="302.962,-144.7799 308.992,-136.0684 298.8456,-139.1182 302.962,-144.7799"/>
<text text-anchor="middle" x="230.5" y="-349.4" font-family="Times,serif" font-size="12.00" fill="#000000">rdf:type</text>
</g>
<!-- http://www.example.org/ns#WaterTank_tankMaterial&#45;&gt;http://www.example.org/ns#FEATURE -->
<g id="edge14" class="edge">
<title>http://www.example.org/ns#WaterTank_tankMaterial&#45;&gt;http://www.example.org/ns#FEATURE</title>
<path fill="none" stroke="#000000" d="M387.331,-480.3886C413.0442,-471.0182 443.108,-455.5182 460.5097,-431 493.7602,-384.1518 445.095,-349.7311 478.5097,-303 484.3775,-294.7938 492.8139,-288.4441 501.7344,-283.5779"/>
<polygon fill="#000000" stroke="#000000" points="503.2812,-286.7177 510.739,-279.1923 500.216,-280.4244 503.2812,-286.7177"/>
<text text-anchor="middle" x="446.0097" y="-461.4" font-family="Times,serif" font-size="12.00" fill="#000000">rdf:type</text>
</g>
<!-- http://www.example.org/ns#TankMaterial_Plastic -->
<g id="node16" class="node">
<title>http://www.example.org/ns#TankMaterial_Plastic</title>
<ellipse fill="#ffc067" stroke="#000000" cx="545.6087" cy="-493" rx="57.7307" ry="18"/>
<text text-anchor="middle" x="545.6087" y="-489.9" font-family="Times,serif" font-size="12.00" fill="#000000">TankMaterial_Plastic</text>
</g>
<!-- http://www.example.org/ns#WaterTank_tankMaterial&#45;&gt;http://www.example.org/ns#TankMaterial_Plastic -->
<g id="edge18" class="edge">
<title>http://www.example.org/ns#WaterTank_tankMaterial&#45;&gt;http://www.example.org/ns#TankMaterial_Plastic</title>
<path fill="none" stroke="#000000" d="M406.3605,-493C429.0344,-493 454.4453,-493 477.291,-493"/>
<polygon fill="#000000" stroke="#000000" points="477.5881,-496.5001 487.5881,-493 477.588,-489.5001 477.5881,-496.5001"/>
<text text-anchor="middle" x="446.0097" y="-496.4" font-family="Times,serif" font-size="12.00" fill="#000000">has</text>
</g>
<!-- http://www.example.org/ns#TankMaterial_Glass -->
<g id="node22" class="node">
<title>http://www.example.org/ns#TankMaterial_Glass</title>
<ellipse fill="#ffc067" stroke="#000000" cx="545.6087" cy="-547" rx="55.3058" ry="18"/>
<text text-anchor="middle" x="545.6087" y="-543.9" font-family="Times,serif" font-size="12.00" fill="#000000">TankMaterial_Glass</text>
</g>
<!-- http://www.example.org/ns#WaterTank_tankMaterial&#45;&gt;http://www.example.org/ns#TankMaterial_Glass -->
<g id="edge31" class="edge">
<title>http://www.example.org/ns#WaterTank_tankMaterial&#45;&gt;http://www.example.org/ns#TankMaterial_Glass</title>
<path fill="none" stroke="#000000" d="M387.8833,-505.5244C419.237,-513.7692 460.3138,-524.5708 492.6874,-533.0838"/>
<polygon fill="#000000" stroke="#000000" points="491.8733,-536.4886 502.4346,-535.6469 493.6535,-529.7188 491.8733,-536.4886"/>
<text text-anchor="middle" x="446.0097" y="-526.4" font-family="Times,serif" font-size="12.00" fill="#000000">has</text>
</g>
<!-- http://www.example.org/ns#Struct_root -->
<g id="node7" class="node">
<title>http://www.example.org/ns#Struct_root</title>
<polygon fill="#f2f4f7" stroke="#000000" points="57,-118 0,-118 0,-82 57,-82 57,-118"/>
<text text-anchor="middle" x="28.5" y="-96.9" font-family="Times,serif" font-size="12.00" fill="#000000">Struct_root</text>
</g>
<!-- http://www.example.org/ns#Struct_root&#45;&gt;http://www.example.org/ns#Struct_WaterTank -->
<g id="edge5" class="edge">
<title>http://www.example.org/ns#Struct_root&#45;&gt;http://www.example.org/ns#Struct_WaterTank</title>
<path fill="none" stroke="#000000" d="M31.8121,-118.0931C39.8836,-159.3978 63.0465,-263.0051 105,-340 110.3738,-349.8623 117.6701,-359.6441 124.7995,-368.1173"/>
<polygon fill="#000000" stroke="#000000" points="122.2988,-370.5747 131.5154,-375.8001 127.569,-365.9676 122.2988,-370.5747"/>
<text text-anchor="middle" x="81" y="-299.4" font-family="Times,serif" font-size="12.00" fill="#000000">has</text>
</g>
<!-- http://www.example.org/ns#Struct_BrewingUnit -->
<g id="node10" class="node">
<title>http://www.example.org/ns#Struct_BrewingUnit</title>
<polygon fill="#f2f4f7" stroke="#000000" points="194,-64 105,-64 105,-28 194,-28 194,-64"/>
<text text-anchor="middle" x="149.5" y="-42.9" font-family="Times,serif" font-size="12.00" fill="#000000">Struct_BrewingUnit</text>
</g>
<!-- http://www.example.org/ns#Struct_root&#45;&gt;http://www.example.org/ns#Struct_BrewingUnit -->
<g id="edge29" class="edge">
<title>http://www.example.org/ns#Struct_root&#45;&gt;http://www.example.org/ns#Struct_BrewingUnit</title>
<path fill="none" stroke="#000000" d="M57.0945,-82.3309C62.9196,-79.0365 69.0792,-75.7649 75,-73 81.513,-69.9586 88.4709,-67.0339 95.4207,-64.3051"/>
<polygon fill="#000000" stroke="#000000" points="96.7514,-67.5436 104.8502,-60.7127 94.2593,-61.0022 96.7514,-67.5436"/>
<text text-anchor="middle" x="81" y="-76.4" font-family="Times,serif" font-size="12.00" fill="#000000">has</text>
</g>
<!-- http://www.example.org/ns#Struct_root&#45;&gt;http://www.example.org/ns#COMPONENT -->
<g id="edge9" class="edge">
<title>http://www.example.org/ns#Struct_root&#45;&gt;http://www.example.org/ns#COMPONENT</title>
<path fill="none" stroke="#000000" d="M57.2703,-101.6611C111.2126,-104.7756 227.9918,-111.5182 293.4185,-115.2958"/>
<polygon fill="#000000" stroke="#000000" points="293.2755,-118.7933 303.4606,-115.8756 293.679,-111.8049 293.2755,-118.7933"/>
<text text-anchor="middle" x="149.5" y="-112.4" font-family="Times,serif" font-size="12.00" fill="#000000">rdf:type</text>
</g>
<!-- http://www.example.org/ns#BrewingUnit_pumpPressure&#45;&gt;http://www.example.org/ns#FEATURE -->
<g id="edge11" class="edge">
<title>http://www.example.org/ns#BrewingUnit_pumpPressure&#45;&gt;http://www.example.org/ns#FEATURE</title>
<path fill="none" stroke="#000000" d="M386.0847,-220.06C420.6203,-230.6551 467.6853,-245.0941 501.7352,-255.5402"/>
<polygon fill="#000000" stroke="#000000" points="500.8268,-258.9224 511.4136,-258.5094 502.8799,-252.2303 500.8268,-258.9224"/>
<text text-anchor="middle" x="446.0097" y="-244.4" font-family="Times,serif" font-size="12.00" fill="#000000">rdf:type</text>
</g>
<!-- http://www.example.org/ns#PumpPressure_P15 -->
<g id="node18" class="node">
<title>http://www.example.org/ns#PumpPressure_P15</title>
<ellipse fill="#ffc067" stroke="#000000" cx="545.6087" cy="-207" rx="53.6122" ry="18"/>
<text text-anchor="middle" x="545.6087" y="-203.9" font-family="Times,serif" font-size="12.00" fill="#000000">PumpPressure_P15</text>
</g>
<!-- http://www.example.org/ns#BrewingUnit_pumpPressure&#45;&gt;http://www.example.org/ns#PumpPressure_P15 -->
<g id="edge23" class="edge">
<title>http://www.example.org/ns#BrewingUnit_pumpPressure&#45;&gt;http://www.example.org/ns#PumpPressure_P15</title>
<path fill="none" stroke="#000000" d="M413.5226,-206.3568C435.8959,-206.4657 460.3038,-206.5846 481.9826,-206.6902"/>
<polygon fill="#000000" stroke="#000000" points="482.0412,-210.1904 492.0582,-206.7392 482.0754,-203.1905 482.0412,-210.1904"/>
<text text-anchor="middle" x="446.0097" y="-209.4" font-family="Times,serif" font-size="12.00" fill="#000000">has</text>
</g>
<!-- http://www.example.org/ns#PumpPressure_P19 -->
<g id="node21" class="node">
<title>http://www.example.org/ns#PumpPressure_P19</title>
<ellipse fill="#ffc067" stroke="#000000" cx="545.6087" cy="-135" rx="53.6122" ry="18"/>
<text text-anchor="middle" x="545.6087" y="-131.9" font-family="Times,serif" font-size="12.00" fill="#000000">PumpPressure_P19</text>
</g>
<!-- http://www.example.org/ns#BrewingUnit_pumpPressure&#45;&gt;http://www.example.org/ns#PumpPressure_P19 -->
<g id="edge30" class="edge">
<title>http://www.example.org/ns#BrewingUnit_pumpPressure&#45;&gt;http://www.example.org/ns#PumpPressure_P19</title>
<path fill="none" stroke="#000000" d="M359.9583,-188.4689C381.7147,-169.5622 415.7452,-141.4271 431.5097,-136 448.3418,-130.2054 467.4161,-128.3557 485.0845,-128.3954"/>
<polygon fill="#000000" stroke="#000000" points="485.2223,-131.8992 495.2974,-128.6215 485.3774,-124.9009 485.2223,-131.8992"/>
<text text-anchor="middle" x="446.0097" y="-139.4" font-family="Times,serif" font-size="12.00" fill="#000000">has</text>
</g>
<!-- http://www.example.org/ns#Struct_BrewingUnit&#45;&gt;http://www.example.org/ns#BrewingUnit_pumpPressure -->
<g id="edge13" class="edge">
<title>http://www.example.org/ns#Struct_BrewingUnit&#45;&gt;http://www.example.org/ns#BrewingUnit_pumpPressure</title>
<path fill="none" stroke="#000000" d="M180.7806,-64.1575C185.7685,-68.1856 190.4472,-72.8211 194,-78 211.9285,-104.1345 191.6457,-122.7071 212,-147 228.9476,-167.2269 254.3255,-180.876 278.045,-189.9025"/>
<polygon fill="#000000" stroke="#000000" points="277.1337,-193.2939 287.7282,-193.3753 279.4968,-186.7048 277.1337,-193.2939"/>
<text text-anchor="middle" x="230.5" y="-178.4" font-family="Times,serif" font-size="12.00" fill="#000000">has</text>
</g>
<!-- http://www.example.org/ns#Struct_BrewingUnit&#45;&gt;http://www.example.org/ns#COMPONENT -->
<g id="edge8" class="edge">
<title>http://www.example.org/ns#Struct_BrewingUnit&#45;&gt;http://www.example.org/ns#COMPONENT</title>
<path fill="none" stroke="#000000" d="M194.0447,-52.9202C211.9521,-56.9882 232.2743,-63.308 249,-73 258.789,-78.6724 257.4705,-84.9018 267,-91 275.2191,-96.2597 284.6088,-100.6964 293.8607,-104.357"/>
<polygon fill="#000000" stroke="#000000" points="292.8043,-107.6981 303.3974,-107.8928 295.2378,-101.1347 292.8043,-107.6981"/>
<text text-anchor="middle" x="230.5" y="-76.4" font-family="Times,serif" font-size="12.00" fill="#000000">rdf:type</text>
</g>
<!-- http://www.example.org/ns#Struct_BrewingUnit&#45;&gt;http://www.example.org/ns#BrewingUnit_capsuleType -->
<g id="edge27" class="edge">
<title>http://www.example.org/ns#Struct_BrewingUnit&#45;&gt;http://www.example.org/ns#BrewingUnit_capsuleType</title>
<path fill="none" stroke="#000000" d="M194.1403,-38.7806C200.1301,-38.0441 206.2047,-37.4151 212,-37 228.4024,-35.8251 232.7254,-34.6429 249,-37 262.4207,-38.9438 276.6162,-42.4166 289.7101,-46.2382"/>
<polygon fill="#000000" stroke="#000000" points="288.8914,-49.6475 299.4772,-49.2091 290.9285,-42.9504 288.8914,-49.6475"/>
<text text-anchor="middle" x="230.5" y="-40.4" font-family="Times,serif" font-size="12.00" fill="#000000">has</text>
</g>
<!-- http://www.example.org/ns#b3 -->
<g id="node12" class="node">
<title>http://www.example.org/ns#b3</title>
<polygon fill="#f5ebdd" stroke="#000000" points="149.5,-331 122.5,-313 149.5,-295 176.5,-313 149.5,-331"/>
<text text-anchor="middle" x="149.5" y="-309.9" font-family="Times,serif" font-size="12.00" fill="#000000">b3</text>
</g>
<!-- http://www.example.org/ns#b3&#45;&gt;http://www.example.org/ns#WaterTank_tankCapacity -->
<g id="edge10" class="edge">
<title>http://www.example.org/ns#b3&#45;&gt;http://www.example.org/ns#WaterTank_tankCapacity</title>
<path fill="none" stroke="#000000" d="M159.8602,-324.1122C171.4095,-335.7665 191.2132,-353.6595 212,-363 228.6046,-370.4612 247.4629,-375.4051 265.5111,-378.6771"/>
<polygon fill="#000000" stroke="#000000" points="264.9962,-382.1395 275.4351,-380.3283 266.1452,-375.2344 264.9962,-382.1395"/>
<text text-anchor="middle" x="230.5" y="-377.4" font-family="Times,serif" font-size="12.00" fill="#000000">constrains</text>
</g>
<!-- http://www.example.org/ns#b3&#45;&gt;http://www.example.org/ns#KNOWLEDGE -->
<g id="edge12" class="edge">
<title>http://www.example.org/ns#b3&#45;&gt;http://www.example.org/ns#KNOWLEDGE</title>
<path fill="none" stroke="#000000" d="M176.8305,-313C200.07,-313 234.5559,-313 265.8666,-313"/>
<polygon fill="#000000" stroke="#000000" points="265.9026,-316.5001 275.9025,-313 265.9025,-309.5001 265.9026,-316.5001"/>
<text text-anchor="middle" x="230.5" y="-316.4" font-family="Times,serif" font-size="12.00" fill="#000000">rdf:type</text>
</g>
<!-- http://www.example.org/ns#b3&#45;&gt;http://www.example.org/ns#BrewingUnit_pumpPressure -->
<g id="edge20" class="edge">
<title>http://www.example.org/ns#b3&#45;&gt;http://www.example.org/ns#BrewingUnit_pumpPressure</title>
<path fill="none" stroke="#000000" d="M157.365,-300.2184C167.8622,-284.2303 187.9495,-257.1226 212,-242 229.0836,-231.2581 249.4218,-223.6565 268.8112,-218.3025"/>
<polygon fill="#000000" stroke="#000000" points="269.7379,-221.678 278.5372,-215.777 267.9785,-214.9027 269.7379,-221.678"/>
<text text-anchor="middle" x="230.5" y="-245.4" font-family="Times,serif" font-size="12.00" fill="#000000">constrains</text>
</g>
<!-- http://www.example.org/ns#BrewingUnit_capsuleType&#45;&gt;http://www.example.org/ns#FEATURE -->
<g id="edge17" class="edge">
<title>http://www.example.org/ns#BrewingUnit_capsuleType&#45;&gt;http://www.example.org/ns#FEATURE</title>
<path fill="none" stroke="#000000" d="M391.9863,-76.1636C399.9737,-79.8746 407.538,-84.7081 413.5097,-91 432.0903,-110.5769 419.4279,-124.8645 431.5097,-149 441.339,-168.6356 449.9071,-169.7709 460.5097,-189 470.9106,-207.8632 464.0607,-218.0242 478.5097,-234 485.5161,-241.7468 494.6419,-248.0575 503.895,-253.0769"/>
<polygon fill="#000000" stroke="#000000" points="502.6053,-256.3447 513.1168,-257.6713 505.7269,-250.0792 502.6053,-256.3447"/>
<text text-anchor="middle" x="446.0097" y="-192.4" font-family="Times,serif" font-size="12.00" fill="#000000">rdf:type</text>
</g>
<!-- http://www.example.org/ns#CapsuleType_Proprietary -->
<g id="node15" class="node">
<title>http://www.example.org/ns#CapsuleType_Proprietary</title>
<ellipse fill="#ffc067" stroke="#000000" cx="545.6087" cy="-18" rx="67.1981" ry="18"/>
<text text-anchor="middle" x="545.6087" y="-14.9" font-family="Times,serif" font-size="12.00" fill="#000000">CapsuleType_Proprietary</text>
</g>
<!-- http://www.example.org/ns#BrewingUnit_capsuleType&#45;&gt;http://www.example.org/ns#CapsuleType_Proprietary -->
<g id="edge16" class="edge">
<title>http://www.example.org/ns#BrewingUnit_capsuleType&#45;&gt;http://www.example.org/ns#CapsuleType_Proprietary</title>
<path fill="none" stroke="#000000" d="M392.8719,-52.2136C420.6166,-45.9987 454.8177,-38.3375 483.8178,-31.8414"/>
<polygon fill="#000000" stroke="#000000" points="484.8464,-35.1978 493.8395,-29.5965 483.3162,-28.3671 484.8464,-35.1978"/>
<text text-anchor="middle" x="446.0097" y="-46.4" font-family="Times,serif" font-size="12.00" fill="#000000">has</text>
</g>
<!-- http://www.example.org/ns#CapsuleType_Standard -->
<g id="node19" class="node">
<title>http://www.example.org/ns#CapsuleType_Standard</title>
<ellipse fill="#ffc067" stroke="#000000" cx="545.6087" cy="-72" rx="61.6175" ry="18"/>
<text text-anchor="middle" x="545.6087" y="-68.9" font-family="Times,serif" font-size="12.00" fill="#000000">CapsuleType_Standard</text>
</g>
<!-- http://www.example.org/ns#BrewingUnit_capsuleType&#45;&gt;http://www.example.org/ns#CapsuleType_Standard -->
<g id="edge26" class="edge">
<title>http://www.example.org/ns#BrewingUnit_capsuleType&#45;&gt;http://www.example.org/ns#CapsuleType_Standard</title>
<path fill="none" stroke="#000000" d="M409.206,-66.6861C430.1338,-67.5014 453.1644,-68.3986 474.2472,-69.22"/>
<polygon fill="#000000" stroke="#000000" points="474.294,-72.7243 484.4227,-69.6164 474.5665,-65.7296 474.294,-72.7243"/>
<text text-anchor="middle" x="446.0097" y="-72.4" font-family="Times,serif" font-size="12.00" fill="#000000">has</text>
</g>
</g>
</svg>
